<svg xmlns="http://www.w3.org/2000/svg" width="912" height="645" viewBox="0 0 912 645"><defs><style type="text/css"/></defs><g transform="translate(128.21986772789285 332.597422184662) scale(1)"><g class="relationship"><g transform="translate(128.74497707764667 -37.07579554127625) rotate(-90)" stroke-width="1" stroke="#A5ABB6"><path d="M 27 0 L 118.31355262720454 0"/><polygon points="-9.45,0 -10.5,3.5 0,0 -10.5,-3.5" fill="#A5ABB6" transform="translate(127.76355262720455 0) rotate(0)" stroke="none"/></g><g transform="translate(128.74497707764667 -109.73257185487853) rotate(90) translate(0 -7)"><g transform="translate(0 0)"><g transform="translate(-21.443359375 0)" fill="#ffffff" stroke="#000000" stroke-width="0"><rect x="0" y="0" width="42.88671875" height="14" rx="2" ry="2" stroke="none"/><text xml:space="preserve" x="2" y="10.5" stroke="none" text-anchor="left" font-family="sans-serif" font-size="10" font-weight="normal" fill="#000000">WRITES</text></g></g></g></g><g class="relationship"><g transform="translate(128.74497707764667 -37.07579554127625) rotate(0)" stroke-width="1" stroke="#A5ABB6"><path d="M 27 0 L 163.88081846362965 0"/><polygon points="-9.45,0 -10.5,3.5 0,0 -10.5,-3.5" fill="#A5ABB6" transform="translate(173.33081846362964 0) rotate(0)" stroke="none"/></g><g transform="translate(224.18538630946148 -37.07579554127625) rotate(0) translate(0 -7)"><g transform="translate(0 0)"><g transform="translate(-21.443359375 0)" fill="#ffffff" stroke="#000000" stroke-width="0"><rect x="0" y="0" width="42.88671875" height="14" rx="2" ry="2" stroke="none"/><text xml:space="preserve" x="2" y="10.5" stroke="none" text-anchor="left" font-family="sans-serif" font-size="10" font-weight="normal" fill="#000000">WRITES</text></g></g></g></g><g class="relationship"><g transform="translate(329.0757955412763 -191.8393481684808) rotate(90)" stroke-width="1" stroke="#A5ABB6"><path d="M 27 0 L 118.31355262720454 0"/><polygon points="-9.45,0 -10.5,3.5 0,0 -10.5,-3.5" fill="#A5ABB6" transform="translate(127.76355262720455 0) rotate(0)" stroke="none"/></g><g transform="translate(329.0757955412763 -119.18257185487852) rotate(270) translate(0 -7)"><g transform="translate(0 0)"><g transform="translate(-30.06640625 0)" fill="#ffffff" stroke="#000000" stroke-width="0"><rect x="0" y="0" width="60.1328125" height="14" rx="2" ry="2" stroke="none"/><text xml:space="preserve" x="2" y="10.5" stroke="none" text-anchor="left" font-family="sans-serif" font-size="10" font-weight="normal" fill="#000000">PUBLISHES</text></g></g></g></g><g class="relationship"><g transform="translate(329.0757955412763 -191.8393481684808) rotate(180)" stroke-width="1" stroke="#A5ABB6"><path d="M 27 0 L 163.88081846362965 0"/><polygon points="-9.45,0 -10.5,3.5 0,0 -10.5,-3.5" fill="#A5ABB6" transform="translate(173.33081846362964 0) rotate(0)" stroke="none"/></g><g transform="translate(233.63538630946147 -191.8393481684808) rotate(360) translate(0 -7)"><g transform="translate(0 0)"><g transform="translate(-30.06640625 0)" fill="#ffffff" stroke="#000000" stroke-width="0"><rect x="0" y="0" width="60.1328125" height="14" rx="2" ry="2" stroke="none"/><text xml:space="preserve" x="2" y="10.5" stroke="none" text-anchor="left" font-family="sans-serif" font-size="10" font-weight="normal" fill="#000000">PUBLISHES</text></g></g></g></g><g class="relationship"><g transform="translate(329.0757955412763 -37.07579554127625) rotate(90)" stroke-width="1" stroke="#A5ABB6"><path d="M 27 0 L 259.33588048482085 0"/><polygon points="-9.45,0 -10.5,3.5 0,0 -10.5,-3.5" fill="#A5ABB6" transform="translate(268.78588048482084 0) rotate(0)" stroke="none"/></g><g transform="translate(329.0757955412763 106.09214470113417) rotate(270) translate(0 -7)"><g transform="translate(0 0)"><g transform="translate(-32.55419921875 0)" fill="#ffffff" stroke="#000000" stroke-width="0"><rect x="0" y="0" width="65.1083984375" height="14" rx="2" ry="2" stroke="none"/><text xml:space="preserve" x="2" y="10.5" stroke="none" text-anchor="left" font-family="sans-serif" font-size="10" font-weight="normal" fill="#000000">WRITTEN_IN</text></g></g></g></g><g class="relationship"><g transform="translate(329.0757955412763 -37.07579554127625) rotate(45)" stroke-width="1" stroke="#A5ABB6"><path d="M 27 0 L 163.88081846362968 0"/><polygon points="-9.45,0 -10.5,3.5 0,0 -10.5,-3.5" fill="#A5ABB6" transform="translate(173.33081846362967 0) rotate(0)" stroke="none"/></g><g transform="translate(396.56235610831175 30.41076502575919) rotate(45) translate(0 -7)"><g transform="translate(0 0)"><g transform="translate(-32.1953125 0)" fill="#ffffff" stroke="#000000" stroke-width="0"><rect x="0" y="0" width="64.390625" height="14" rx="2" ry="2" stroke="none"/><text xml:space="preserve" x="2" y="10.5" stroke="none" text-anchor="left" font-family="sans-serif" font-size="10" font-weight="normal" fill="#000000">TAGGED_AS</text></g></g></g></g><g class="relationship"><g transform="translate(329.0757955412763 -37.07579554127625) rotate(156.4954904353805)" stroke-width="1" stroke="#A5ABB6"><path d="M 27 0 L 400.4628714025198 0"/><polygon points="-9.45,0 -10.5,3.5 0,0 -10.5,-3.5" fill="#A5ABB6" transform="translate(409.9128714025198 0) rotate(0)" stroke="none"/></g><g transform="translate(133.07793762514495 48.16484206315381) rotate(336.4954904353805) translate(0 -7)"><g transform="translate(0 0)"><g transform="translate(-47.1953125 0)" fill="#ffffff" stroke="#000000" stroke-width="0"><rect x="0" y="0" width="94.390625" height="14" rx="2" ry="2" stroke="none"/><text xml:space="preserve" x="2" y="10.5" stroke="none" text-anchor="left" font-family="sans-serif" font-size="10" font-weight="normal" fill="#000000">CATEGORIZED_AS</text></g></g></g></g><g class="relationship"><g transform="translate(-71.58584138598297 -191.8393481684808) rotate(90)" stroke-width="1" stroke="#A5ABB6"><path d="M 27 0 L 292.56368861557 0"/><polygon points="-9.45,0 -10.5,3.5 0,0 -10.5,-3.5" fill="#A5ABB6" transform="translate(302.01368861557 0) rotate(0)" stroke="none"/></g><g transform="translate(-71.58584138598296 -32.05750386069579) rotate(270) translate(0 -7)"><g transform="translate(0 0)"><g transform="translate(-39.23388671875 0)" fill="#ffffff" stroke="#000000" stroke-width="0"><rect x="0" y="0" width="78.4677734375" height="14" rx="2" ry="2" stroke="none"/><text xml:space="preserve" x="2" y="10.5" stroke="none" text-anchor="left" font-family="sans-serif" font-size="10" font-weight="normal" fill="#000000">IS_SUBSET_OF</text></g></g></g></g><g class="relationship"><g transform="translate(102.08921900694196 237.4456833164689) rotate(-150.00000000000003)" stroke-width="1" stroke="#A5ABB6"><path d="M 27 0 L 164.09268573875943 0"/><polygon points="-9.45,0 -10.5,3.5 0,0 -10.5,-3.5" fill="#A5ABB6" transform="translate(173.54268573875942 0) rotate(0)" stroke="none"/></g><g transform="translate(19.34365884336097 189.67251188177903) rotate(29.999999999999993) translate(0 -7)"><g transform="translate(0 0)"><g transform="translate(-35.81103515625 0)" fill="#ffffff" stroke="#000000" stroke-width="0"><rect x="0" y="0" width="71.6220703125" height="14" rx="2" ry="2" stroke="none"/><text xml:space="preserve" x="2" y="10.5" stroke="none" text-anchor="left" font-family="sans-serif" font-size="10" font-weight="normal" fill="#000000">BELONGS_TO</text></g></g></g></g><g class="relationship"><g transform="translate(329.0757955412763 -37.07579554127625) rotate(129.58545715768355)" stroke-width="1" stroke="#A5ABB6"><path d="M 27 0 L 319.7591355945558 0"/><polygon points="-9.45,0 -10.5,3.5 0,0 -10.5,-3.5" fill="#A5ABB6" transform="translate(329.2091355945558 0) rotate(0)" stroke="none"/></g><g transform="translate(218.5934114507653 96.54350446904294) rotate(309.58545715768355) translate(0 -7)"><g transform="translate(0 0)"><g transform="translate(-27.283203125 0)" fill="#ffffff" stroke="#000000" stroke-width="0"><rect x="0" y="0" width="54.56640625" height="14" rx="2" ry="2" stroke="none"/><text xml:space="preserve" x="2" y="10.5" stroke="none" text-anchor="left" font-family="sans-serif" font-size="10" font-weight="normal" fill="#000000">INCLUDES</text></g></g></g></g><g class="relationship"><g transform="translate(600.319933244507 -117.46339908028781) rotate(163.49195496281018)" stroke-width="1" stroke="#A5ABB6"><path d="M 27 0 L 246.45554791504964 0"/><polygon points="-9.45,0 -10.5,3.5 0,0 -10.5,-3.5" fill="#A5ABB6" transform="translate(255.90554791504962 0) rotate(0)" stroke="none"/></g><g transform="translate(469.2280991659213 -78.6122059288212) rotate(343.49195496281015) translate(0 -13)"><g transform="translate(0 0)"><g transform="translate(-27.46630859375 0)" fill="#ffffff" stroke="#000000" stroke-width="0"><rect x="0" y="0" width="54.9326171875" height="14" rx="2" ry="2" stroke="none"/><text xml:space="preserve" x="2" y="10.5" stroke="none" text-anchor="left" font-family="sans-serif" font-size="10" font-weight="normal" fill="#000000">CONTAINS</text></g></g><g transform="translate(0 14)"><g transform="translate(-23.06884765625 0)" fill="white"><rect x="0" y="0" width="46.1376953125" height="12" rx="0" ry="0" stroke="none"/><g font-family="sans-serif" font-size="10" font-weight="normal" fill="#000000" text-anchor="end"><text xml:space="preserve" x="40.5810546875" y="9.5" stroke="none">quantity:</text><text xml:space="preserve" x="43.359375" y="9.5" stroke="none" text-anchor="start"></text></g></g></g></g></g><g class="relationship"><g transform="translate(128.74497707764667 -191.8393481684808) rotate(180)" stroke-width="1" stroke="#A5ABB6"><path d="M 27 0 L 163.88081846362965 0"/><polygon points="-9.45,0 -10.5,3.5 0,0 -10.5,-3.5" fill="#A5ABB6" transform="translate(173.33081846362964 0) rotate(0)" stroke="none"/></g><g transform="translate(33.30456784583184 -191.8393481684808) rotate(360) translate(0 -7)"><g transform="translate(0 0)"><g transform="translate(-47.1953125 0)" fill="#ffffff" stroke="#000000" stroke-width="0"><rect x="0" y="0" width="94.390625" height="14" rx="2" ry="2" stroke="none"/><text xml:space="preserve" x="2" y="10.5" stroke="none" text-anchor="left" font-family="sans-serif" font-size="10" font-weight="normal" fill="#000000">CATEGORIZED_AS</text></g></g></g></g><g class="relationship"><g transform="translate(727.1160581950284 -117.46339908028781) rotate(180)" stroke-width="1" stroke="#A5ABB6"><path d="M 27 0 L 90.3461249505214 0"/><polygon points="-9.45,0 -10.5,3.5 0,0 -10.5,-3.5" fill="#A5ABB6" transform="translate(99.7961249505214 0) rotate(0)" stroke="none"/></g><g transform="translate(668.4429957197676 -117.4633990802878) rotate(360) translate(0 -7)"><g transform="translate(0 0)"><g transform="translate(-19.5048828125 0)" fill="#ffffff" stroke="#000000" stroke-width="0"><rect x="0" y="0" width="39.009765625" height="14" rx="2" ry="2" stroke="none"/><text xml:space="preserve" x="2" y="10.5" stroke="none" text-anchor="left" font-family="sans-serif" font-size="10" font-weight="normal" fill="#000000">MAKES</text></g></g></g></g><g class="relationship"><g transform="translate(727.1160581950284 -117.46339908028781) rotate(90)" stroke-width="1" stroke="#A5ABB6"><path d="M 27 0 L 90.3461249505214 0"/><polygon points="-9.45,0 -10.5,3.5 0,0 -10.5,-3.5" fill="#A5ABB6" transform="translate(99.7961249505214 0) rotate(0)" stroke="none"/></g><g transform="translate(727.1160581950284 -58.790336605027115) rotate(270) translate(0 -7)"><g transform="translate(0 0)"><g transform="translate(-23.95556640625 0)" fill="#ffffff" stroke="#000000" stroke-width="0"><rect x="0" y="0" width="47.9111328125" height="14" rx="2" ry="2" stroke="none"/><text xml:space="preserve" x="2" y="10.5" stroke="none" text-anchor="left" font-family="sans-serif" font-size="10" font-weight="normal" fill="#000000">LIVES_IN</text></g></g></g></g><g class="relationship"><g transform="translate(329.0757955412763 -37.07579554127625) rotate(-53.68745570038112)" stroke-width="1" stroke="#A5ABB6"><path d="M 27 0 L 275.06148071920825 0"/><polygon points="-9.45,0 -10.5,3.5 0,0 -10.5,-3.5" fill="#A5ABB6" transform="translate(284.51148071920824 0) rotate(0)" stroke="none"/></g><g transform="translate(418.51463137811464 -158.77616192413166) rotate(-53.68745570038112) translate(0 -7)"><g transform="translate(0 0)"><g transform="translate(-42.1904296875 0)" fill="#ffffff" stroke="#000000" stroke-width="0"><rect x="0" y="0" width="84.380859375" height="14" rx="2" ry="2" stroke="none"/><text xml:space="preserve" x="2" y="10.5" stroke="none" text-anchor="left" font-family="sans-serif" font-size="10" font-weight="normal" fill="#000000">FORMATTED_AS</text></g></g></g></g><g class="relationship"><g transform="translate(329.0757955412763 -37.07579554127625) rotate(13.394788502359845)" stroke-width="1" stroke="#A5ABB6"><path d="M 27 0 L 163.88081846362965 0"/><polygon points="-9.45,0 -10.5,3.5 0,0 -10.5,-3.5" fill="#A5ABB6" transform="translate(173.33081846362964 0) rotate(0)" stroke="none"/></g><g transform="translate(421.91993487925805 -14.966125599693715) rotate(13.394788502359845) translate(0 -7)"><g transform="translate(0 0)"><g transform="translate(-32.1953125 0)" fill="#ffffff" stroke="#000000" stroke-width="0"><rect x="0" y="0" width="64.390625" height="14" rx="2" ry="2" stroke="none"/><text xml:space="preserve" x="2" y="10.5" stroke="none" text-anchor="left" font-family="sans-serif" font-size="10" font-weight="normal" fill="#000000">TAGGED_AS</text></g></g></g></g><g class="node"><g fill="#4C8EDA" stroke="#2870c2" stroke-width="2"><circle cx="128.74497707764667" cy="-191.8393481684808" r="26"/></g><g transform="translate(128.74497707764667 -191.8393481684808)"><g transform="scale(1) translate(0 0)"><g transform="translate(0 0)"><g font-family="sans-serif" font-size="10" font-weight="normal" fill="#ffffff" text-anchor="middle"><text xml:space="preserve" x="0" y="3.5" stroke="none">Book</text></g></g></g><g transform="translate(1.7757378587636622e-15 -65)"><g transform="translate(0 0)"><g transform="translate(-29.736328125 0)" fill="white"><rect x="0" y="0" width="59.47265625" height="36" rx="0" ry="0" stroke="none"/><g font-family="sans-serif" font-size="10" font-weight="normal" fill="#000000" text-anchor="end"><text xml:space="preserve" x="53.916015625" y="9.5" stroke="none">isbn:</text><text xml:space="preserve" x="56.6943359375" y="9.5" stroke="none" text-anchor="start"></text><text xml:space="preserve" x="53.916015625" y="21.5" stroke="none" text-anchor="end">title:</text><text xml:space="preserve" x="56.6943359375" y="21.5" stroke="none" text-anchor="start"></text><text xml:space="preserve" x="53.916015625" y="33.5" stroke="none" text-anchor="end">description:</text><text xml:space="preserve" x="56.6943359375" y="33.5" stroke="none" text-anchor="start"></text></g></g></g></g></g></g><g class="node"><g fill="#4C8EDA" stroke="#2870c2" stroke-width="2"><circle cx="128.74497707764667" cy="-37.07579554127625" r="26"/></g><g transform="translate(128.74497707764667 -37.07579554127625)"><g transform="scale(1) translate(0 0)"><g transform="translate(0 0)"><g font-family="sans-serif" font-size="10" font-weight="normal" fill="#ffffff" text-anchor="middle"><text xml:space="preserve" x="0" y="3.5" stroke="none">Author</text></g></g></g><g transform="translate(-20.506096654409877 20.50609665440988)"><g transform="translate(0 0)"><g transform="translate(-36.1279296875 0)" fill="white"><rect x="0" y="0" width="36.1279296875" height="24" rx="0" ry="0" stroke="none"/><g font-family="sans-serif" font-size="10" font-weight="normal" fill="#000000" text-anchor="end"><text xml:space="preserve" x="30.5712890625" y="9.5" stroke="none">id:</text><text xml:space="preserve" x="33.349609375" y="9.5" stroke="none" text-anchor="start"></text><text xml:space="preserve" x="30.5712890625" y="21.5" stroke="none" text-anchor="end">name:</text><text xml:space="preserve" x="33.349609375" y="21.5" stroke="none" text-anchor="start"></text></g></g></g></g></g></g><g class="node"><g fill="#4C8EDA" stroke="#2870c2" stroke-width="2"><circle cx="329.0757955412763" cy="-37.07579554127625" r="26"/></g><g transform="translate(329.0757955412763 -37.07579554127625)"><g transform="scale(1) translate(0 0)"><g transform="translate(0 0)"><g font-family="sans-serif" font-size="10" font-weight="normal" fill="#ffffff" text-anchor="middle"><text xml:space="preserve" x="0" y="3.5" stroke="none">Book</text></g></g></g><g transform="translate(-20.506096654409877 -56.50609665440988)"><g transform="translate(0 0)"><g transform="translate(-59.47265625 0)" fill="white"><rect x="0" y="0" width="59.47265625" height="36" rx="0" ry="0" stroke="none"/><g font-family="sans-serif" font-size="10" font-weight="normal" fill="#000000" text-anchor="end"><text xml:space="preserve" x="53.916015625" y="9.5" stroke="none">isbn:</text><text xml:space="preserve" x="56.6943359375" y="9.5" stroke="none" text-anchor="start"></text><text xml:space="preserve" x="53.916015625" y="21.5" stroke="none" text-anchor="end">title:</text><text xml:space="preserve" x="56.6943359375" y="21.5" stroke="none" text-anchor="start"></text><text xml:space="preserve" x="53.916015625" y="33.5" stroke="none" text-anchor="end">description:</text><text xml:space="preserve" x="56.6943359375" y="33.5" stroke="none" text-anchor="start"></text></g></g></g></g></g></g><g class="node"><g fill="#4C8EDA" stroke="#2870c2" stroke-width="2"><circle cx="329.0757955412763" cy="-191.8393481684808" r="26"/></g><g transform="translate(329.0757955412763 -191.8393481684808)"><g transform="scale(0.921875078125) translate(0 0)"><g transform="translate(0 0)"><g font-family="sans-serif" font-size="10" font-weight="normal" fill="#ffffff" text-anchor="middle"><text xml:space="preserve" x="0" y="3.5" stroke="none">Publisher</text></g></g></g><g transform="translate(20.50609665440988 -44.50609665440987)"><g transform="translate(0 0)"><g transform="translate(0 0)" fill="white"><rect x="0" y="0" width="36.1279296875" height="24" rx="0" ry="0" stroke="none"/><g font-family="sans-serif" font-size="10" font-weight="normal" fill="#000000" text-anchor="end"><text xml:space="preserve" x="30.5712890625" y="9.5" stroke="none">id:</text><text xml:space="preserve" x="33.349609375" y="9.5" stroke="none" text-anchor="start"></text><text xml:space="preserve" x="30.5712890625" y="21.5" stroke="none" text-anchor="end">name:</text><text xml:space="preserve" x="33.349609375" y="21.5" stroke="none" text-anchor="start"></text></g></g></g></g></g></g><g class="node"><g fill="#4C8EDA" stroke="#2870c2" stroke-width="2"><circle cx="329.0757955412763" cy="258.7100849435446" r="26"/></g><g transform="translate(329.0757955412763 258.7100849435446)"><g transform="scale(0.8671876328125001) translate(0 0)"><g transform="translate(0 0)"><g font-family="sans-serif" font-size="10" font-weight="normal" fill="#ffffff" text-anchor="middle"><text xml:space="preserve" x="0" y="3.5" stroke="none">Language</text></g></g></g><g transform="translate(1.7757378587636622e-15 29)"><g transform="translate(0 0)"><g transform="translate(-18.06396484375 0)" fill="white"><rect x="0" y="0" width="36.1279296875" height="24" rx="0" ry="0" stroke="none"/><g font-family="sans-serif" font-size="10" font-weight="normal" fill="#000000" text-anchor="end"><text xml:space="preserve" x="30.5712890625" y="9.5" stroke="none">id:</text><text xml:space="preserve" x="33.349609375" y="9.5" stroke="none" text-anchor="start"></text><text xml:space="preserve" x="30.5712890625" y="21.5" stroke="none" text-anchor="end">name:</text><text xml:space="preserve" x="33.349609375" y="21.5" stroke="none" text-anchor="start"></text></g></g></g></g></g></g><g class="node"><g fill="#4C8EDA" stroke="#2870c2" stroke-width="2"><circle cx="470.73107575756006" cy="104.5794846750075" r="26"/></g><g transform="translate(470.73107575756006 104.5794846750075)"><g transform="scale(1) translate(0 0)"><g transform="translate(0 0)"><g font-family="sans-serif" font-size="10" font-weight="normal" fill="#ffffff" text-anchor="middle"><text xml:space="preserve" x="0" y="3.5" stroke="none">Genre</text></g></g></g><g transform="translate(20.50609665440988 20.506096654409877)"><g transform="translate(0 0)"><g transform="translate(0 0)" fill="white"><rect x="0" y="0" width="36.1279296875" height="24" rx="0" ry="0" stroke="none"/><g font-family="sans-serif" font-size="10" font-weight="normal" fill="#000000" text-anchor="end"><text xml:space="preserve" x="30.5712890625" y="9.5" stroke="none">id:</text><text xml:space="preserve" x="33.349609375" y="9.5" stroke="none" text-anchor="start"></text><text xml:space="preserve" x="30.5712890625" y="21.5" stroke="none" text-anchor="end">name:</text><text xml:space="preserve" x="33.349609375" y="21.5" stroke="none" text-anchor="start"></text></g></g></g></g></g></g><g class="node"><g fill="#4C8EDA" stroke="#2870c2" stroke-width="2"><circle cx="-71.58584138598297" cy="137.1743404470892" r="26"/></g><g transform="translate(-71.58584138598297 137.1743404470892)"><g transform="scale(0.9453125546875001) translate(0 0)"><g transform="translate(0 0)"><g font-family="sans-serif" font-size="10" font-weight="normal" fill="#ffffff" text-anchor="middle"><text xml:space="preserve" x="0" y="3.5" stroke="none">Category</text></g></g></g><g transform="translate(-20.506096654409877 20.50609665440988)"><g transform="translate(0 0)"><g transform="translate(-36.1279296875 0)" fill="white"><rect x="0" y="0" width="36.1279296875" height="24" rx="0" ry="0" stroke="none"/><g font-family="sans-serif" font-size="10" font-weight="normal" fill="#000000" text-anchor="end"><text xml:space="preserve" x="30.5712890625" y="9.5" stroke="none">id:</text><text xml:space="preserve" x="33.349609375" y="9.5" stroke="none" text-anchor="start"></text><text xml:space="preserve" x="30.5712890625" y="21.5" stroke="none" text-anchor="end">name:</text><text xml:space="preserve" x="33.349609375" y="21.5" stroke="none" text-anchor="start"></text></g></g></g></g></g></g><g class="node"><g fill="#4C8EDA" stroke="#2870c2" stroke-width="2"><circle cx="-71.58584138598297" cy="-191.8393481684808" r="26"/></g><g transform="translate(-71.58584138598297 -191.8393481684808)"><g transform="scale(0.9453125546875001) translate(0 0)"><g transform="translate(0 0)"><g font-family="sans-serif" font-size="10" font-weight="normal" fill="#ffffff" text-anchor="middle"><text xml:space="preserve" x="0" y="3.5" stroke="none">Category</text></g></g></g></g></g><g class="node"><g fill="#4C8EDA" stroke="#2870c2" stroke-width="2"><circle cx="102.08921900694196" cy="237.4456833164689" r="26"/></g><g transform="translate(102.08921900694196 237.4456833164689)"><g transform="scale(0.875000125) translate(0 0)"><g transform="translate(0 0)"><g font-family="sans-serif" font-size="10" font-weight="normal" fill="#ffffff" text-anchor="middle"><text xml:space="preserve" x="0" y="3.5" stroke="none">Character</text></g></g></g><g transform="translate(1.7757378587636622e-15 29)"><g transform="translate(0 0)"><g transform="translate(-18.06396484375 0)" fill="white"><rect x="0" y="0" width="36.1279296875" height="24" rx="0" ry="0" stroke="none"/><g font-family="sans-serif" font-size="10" font-weight="normal" fill="#000000" text-anchor="end"><text xml:space="preserve" x="30.5712890625" y="9.5" stroke="none">id:</text><text xml:space="preserve" x="33.349609375" y="9.5" stroke="none" text-anchor="start"></text><text xml:space="preserve" x="30.5712890625" y="21.5" stroke="none" text-anchor="end">name:</text><text xml:space="preserve" x="33.349609375" y="21.5" stroke="none" text-anchor="start"></text></g></g></g></g></g></g><g class="node"><g fill="#4C8EDA" stroke="#2870c2" stroke-width="2"><circle cx="600.319933244507" cy="-117.46339908028781" r="26"/></g><g transform="translate(600.319933244507 -117.46339908028781)"><g transform="scale(1) translate(0 0)"><g transform="translate(0 0)"><g font-family="sans-serif" font-size="10" font-weight="normal" fill="#ffffff" text-anchor="middle"><text xml:space="preserve" x="0" y="3.5" stroke="none">Order</text></g></g></g><g transform="translate(1.7757378587636622e-15 -77)"><g transform="translate(0 0)"><g transform="translate(-29.736328125 0)" fill="white"><rect x="0" y="0" width="59.47265625" height="48" rx="0" ry="0" stroke="none"/><g font-family="sans-serif" font-size="10" font-weight="normal" fill="#000000" text-anchor="end"><text xml:space="preserve" x="53.916015625" y="9.5" stroke="none">id:</text><text xml:space="preserve" x="56.6943359375" y="9.5" stroke="none" text-anchor="start"></text><text xml:space="preserve" x="53.916015625" y="21.5" stroke="none" text-anchor="end">description:</text><text xml:space="preserve" x="56.6943359375" y="21.5" stroke="none" text-anchor="start"></text><text xml:space="preserve" x="53.916015625" y="33.5" stroke="none" text-anchor="end">total_price:</text><text xml:space="preserve" x="56.6943359375" y="33.5" stroke="none" text-anchor="start"></text><text xml:space="preserve" x="53.916015625" y="45.5" stroke="none" text-anchor="end">date:</text><text xml:space="preserve" x="56.6943359375" y="45.5" stroke="none" text-anchor="start"></text></g></g></g></g></g></g><g class="node"><g fill="#4C8EDA" stroke="#2870c2" stroke-width="2"><circle cx="727.1160581950284" cy="-117.46339908028781" r="26"/></g><g transform="translate(727.1160581950284 -117.46339908028781)"><g transform="scale(0.8828126171874999) translate(0 0)"><g transform="translate(0 0)"><g font-family="sans-serif" font-size="10" font-weight="normal" fill="#ffffff" text-anchor="middle"><text xml:space="preserve" x="0" y="3.5" stroke="none">Customer</text></g></g></g><g transform="translate(20.50609665440988 -68.50609665440987)"><g transform="translate(0 0)"><g transform="translate(0 0)" fill="white"><rect x="0" y="0" width="36.1279296875" height="48" rx="0" ry="0" stroke="none"/><g font-family="sans-serif" font-size="10" font-weight="normal" fill="#000000" text-anchor="end"><text xml:space="preserve" x="30.5712890625" y="9.5" stroke="none">id:</text><text xml:space="preserve" x="33.349609375" y="9.5" stroke="none" text-anchor="start"></text><text xml:space="preserve" x="30.5712890625" y="21.5" stroke="none" text-anchor="end">name:</text><text xml:space="preserve" x="33.349609375" y="21.5" stroke="none" text-anchor="start"></text><text xml:space="preserve" x="30.5712890625" y="33.5" stroke="none" text-anchor="end">email:</text><text xml:space="preserve" x="33.349609375" y="33.5" stroke="none" text-anchor="start"></text><text xml:space="preserve" x="30.5712890625" y="45.5" stroke="none" text-anchor="end">city:</text><text xml:space="preserve" x="33.349609375" y="45.5" stroke="none" text-anchor="start"></text></g></g></g></g></g></g><g class="node"><g fill="#4C8EDA" stroke="#2870c2" stroke-width="2"><circle cx="727.1160581950284" cy="9.332725870233588" r="26"/></g><g transform="translate(727.1160581950284 9.332725870233588)"><g transform="scale(1) translate(0 0)"><g transform="translate(0 0)"><g font-family="sans-serif" font-size="10" font-weight="normal" fill="#ffffff" text-anchor="middle"><text xml:space="preserve" x="0" y="3.5" stroke="none">Country</text></g></g></g><g transform="translate(1.7757378587636622e-15 29)"><g transform="translate(0 0)"><g transform="translate(-18.06396484375 0)" fill="white"><rect x="0" y="0" width="36.1279296875" height="24" rx="0" ry="0" stroke="none"/><g font-family="sans-serif" font-size="10" font-weight="normal" fill="#000000" text-anchor="end"><text xml:space="preserve" x="30.5712890625" y="9.5" stroke="none">id:</text><text xml:space="preserve" x="33.349609375" y="9.5" stroke="none" text-anchor="start"></text><text xml:space="preserve" x="30.5712890625" y="21.5" stroke="none" text-anchor="end">name:</text><text xml:space="preserve" x="33.349609375" y="21.5" stroke="none" text-anchor="start"></text></g></g></g></g></g></g><g class="node"><g fill="#4C8EDA" stroke="#2870c2" stroke-width="2"><circle cx="513.5496590673249" cy="-288.0913255302521" r="26"/></g><g transform="translate(513.5496590673249 -288.0913255302521)"><g transform="scale(1) translate(0 0)"><g transform="translate(0 0)"><g font-family="sans-serif" font-size="10" font-weight="normal" fill="#ffffff" text-anchor="middle"><text xml:space="preserve" x="0" y="3.5" stroke="none">Format</text></g></g></g><g transform="translate(20.50609665440988 -44.50609665440987)"><g transform="translate(0 0)"><g transform="translate(0 0)" fill="white"><rect x="0" y="0" width="36.1279296875" height="24" rx="0" ry="0" stroke="none"/><g font-family="sans-serif" font-size="10" font-weight="normal" fill="#000000" text-anchor="end"><text xml:space="preserve" x="30.5712890625" y="9.5" stroke="none">id:</text><text xml:space="preserve" x="33.349609375" y="9.5" stroke="none" text-anchor="start"></text><text xml:space="preserve" x="30.5712890625" y="21.5" stroke="none" text-anchor="end">name:</text><text xml:space="preserve" x="33.349609375" y="21.5" stroke="none" text-anchor="start"></text></g></g></g></g></g></g><g class="node"><g fill="#4C8EDA" stroke="#2870c2" stroke-width="2"><circle cx="523.9570054274661" cy="9.332725870233588" r="26"/></g><g transform="translate(523.9570054274661 9.332725870233588)"><g transform="scale(1) translate(0 0)"><g transform="translate(0 0)"><g font-family="sans-serif" font-size="10" font-weight="normal" fill="#ffffff" text-anchor="middle"><text xml:space="preserve" x="0" y="3.5" stroke="none">Genre</text></g></g></g><g transform="translate(29 -12)"><g transform="translate(0 0)"><g transform="translate(0 0)" fill="white"><rect x="0" y="0" width="36.1279296875" height="24" rx="0" ry="0" stroke="none"/><g font-family="sans-serif" font-size="10" font-weight="normal" fill="#000000" text-anchor="end"><text xml:space="preserve" x="30.5712890625" y="9.5" stroke="none">id:</text><text xml:space="preserve" x="33.349609375" y="9.5" stroke="none" text-anchor="start"></text><text xml:space="preserve" x="30.5712890625" y="21.5" stroke="none" text-anchor="end">name:</text><text xml:space="preserve" x="33.349609375" y="21.5" stroke="none" text-anchor="start"></text></g></g></g></g></g></g></g></svg>